<svg width="76" height="99" fill="none" xmlns="http://www.w3.org/2000/svg"><g clip-path="url(#clip0_221_52)" filter="url(#filter0_d_221_52)"><path d="M59.465 52.037c.275 0 .539-.11.733-.307.195-.197.304-.463.304-.742 0-13.62-8.483-22.543-21.71-22.983V6.049c0-.278-.11-.545-.304-.742a1.031 1.031 0 00-1.467 0 1.055 1.055 0 00-.304.742v21.956C23.484 28.445 15 37.367 15 50.988c0 .279.11.545.304.742.194.197.458.307.733.307h13.517a8.65 8.65 0 002.784 5.164 8.473 8.473 0 005.41 2.157 8.473 8.473 0 005.414-2.155 8.649 8.649 0 002.786-5.166h13.517zM37.748 30.081c9.762 0 20.182 5.245 20.66 19.859H17.073c.491-14.614 10.91-19.859 20.674-19.859zm0 27.18a6.431 6.431 0 01-3.938-1.549 6.56 6.56 0 01-2.154-3.675h12.19a6.56 6.56 0 01-2.157 3.678 6.43 6.43 0 01-3.941 1.545zm22.844 7.537l-6.437-4.964a1.03 1.03 0 00-1.456.199 1.06 1.06 0 00.198 1.472l6.437 4.964a1.03 1.03 0 001.455-.199 1.055 1.055 0 00.071-1.165 1.05 1.05 0 00-.268-.307zM23.027 59.75l-6.257 5.188a1.042 1.042 0 00-.483.724 1.06 1.06 0 00.227.842 1.039 1.039 0 00.779.378 1.028 1.028 0 00.79-.35l6.265-5.181a1.046 1.046 0 00.397-.712 1.062 1.062 0 00-.228-.783 1.04 1.04 0 00-.715-.38 1.028 1.028 0 00-.768.253l-.007.02zm15.025 4.831c-.275 0-.539.11-.733.308a1.055 1.055 0 00-.304.741v7.321c0 .278.109.545.303.742a1.031 1.031 0 001.467 0c.195-.197.304-.464.304-.742v-7.32c0-.279-.11-.546-.304-.742a1.031 1.031 0 00-.733-.308z" fill="#fff"/></g><defs><clipPath id="clip0_221_52"><path fill="#fff" transform="translate(15 5)" d="M0 0h46v69H0z"/></clipPath><filter id="filter0_d_221_52" x="0" y="0" width="76" height="99" filterUnits="userSpaceOnUse" color-interpolation-filters="sRGB"><feFlood flood-opacity="0" result="BackgroundImageFix"/><feColorMatrix in="SourceAlpha" values="0 0 0 0 0 0 0 0 0 0 0 0 0 0 0 0 0 0 127 0" result="hardAlpha"/><feOffset dy="10"/><feGaussianBlur stdDeviation="7.5"/><feComposite in2="hardAlpha" operator="out"/><feColorMatrix values="0 0 0 0 0 0 0 0 0 0 0 0 0 0 0 0 0 0 0.25 0"/><feBlend in2="BackgroundImageFix" result="effect1_dropShadow_221_52"/><feBlend in="SourceGraphic" in2="effect1_dropShadow_221_52" result="shape"/></filter></defs></svg>